<?xml version="1.0" encoding="utf-8"?>
<!-- Generator: Adobe Illustrator 19.0.0, SVG Export Plug-In . SVG Version: 6.00 Build 0)  -->
<svg version="1.1" id="图层_1" xmlns="http://www.w3.org/2000/svg" xmlns:xlink="http://www.w3.org/1999/xlink" x="0px" y="0px"
	 viewBox="0 0 426.9 426.9" style="enable-background:new 0 0 426.9 426.9;" xml:space="preserve">
<style type="text/css">
	.st0{fill:#F0F1F1;}
	.st1{fill:#47BED9;}
	.st2{fill:#FFFFFF;}
	.st3{fill:#76CADF;}
	.st4{fill:#82452D;}
	.st5{fill:#CE9F62;}
	.st6{fill:#E6B87A;}
</style>
<g id="XMLID_2_">
	<path id="XMLID_14_" class="st0" d="M426.9,413.5c0,7.4-6,13.3-13.3,13.3H120.1c-7.4,0-13.3-6-13.3-13.3V120.1
		c0-7.4,6-13.3,13.3-13.3h293.5c7.4,0,13.3,6,13.3,13.3V413.5z"/>
	<rect id="XMLID_13_" x="133.4" y="133.4" class="st1" width="266.8" height="213.4"/>
	<path id="XMLID_12_" class="st2" d="M320.1,306.8c0,7.4-6,13.3-13.3,13.3H13.3c-7.4,0-13.3-6-13.3-13.3V13.3C0,6,6,0,13.3,0h293.5
		c7.4,0,13.3,6,13.3,13.3V306.8z"/>
	<rect id="XMLID_11_" x="26.7" y="26.7" class="st1" width="266.8" height="213.4"/>
	<g id="XMLID_9_">
		<polygon id="XMLID_10_" class="st3" points="139.9,146.9 260.1,26.7 26.4,26.7 26.4,202.8 84.2,133.4 84.2,133.4 106.4,106.7 
			106.4,106.7 106.5,106.7 		"/>
	</g>
	<polygon id="XMLID_8_" class="st4" points="240.1,53.4 100,240.1 293.5,240.1 293.5,128.1 	"/>
	<polygon id="XMLID_7_" class="st0" points="240,106.6 259.5,133.9 279,107.9 240,53.2 200.9,105.3 220.5,133.9 	"/>
	<polygon id="XMLID_6_" class="st5" points="106.7,106.7 26.7,202.8 26.7,240.1 217.9,240.1 	"/>
	<path id="XMLID_5_" class="st2" d="M173.4,66.9c0,7.4-6,13.3-13.3,13.3H80c-7.4,0-13.3-6-13.3-13.3c0-8.3,7.8-17,22.2-11.8
		c7.3-9.1,18.6-14.9,31.1-14.9s23.8,5.8,31.1,14.9C165.7,50,173.4,58.7,173.4,66.9z"/>
	<polygon id="XMLID_4_" class="st6" points="140.2,146.9 46.9,240.1 26.7,240.1 26.7,202.8 84.5,133.4 106.7,160.1 128.9,133.4 	"/>
	<polygon id="XMLID_3_" class="st2" points="106.7,160.3 128.9,133.6 106.7,107 84.4,133.6 	"/>
</g>
</svg>
